<?xml version="1.0" standalone="no"?>
<!DOCTYPE svg PUBLIC "-//W3C//DTD SVG 20010904//EN"
 "http://www.w3.org/TR/2001/REC-SVG-20010904/DTD/svg10.dtd">
<svg version="1.0" xmlns="http://www.w3.org/2000/svg"
 width="1000.000000pt" height="1000.000000pt" viewBox="0 0 1000.000000 1000.000000"
 preserveAspectRatio="xMidYMid meet">
<metadata>
Created by potrace 1.14, written by Peter Selinger 2001-2017
</metadata>
<g transform="translate(0.000000,1000.000000) scale(0.100000,-0.100000)"
fill="#000000" stroke="none">
<path d="M0 5000 l0 -5000 5000 0 5000 0 0 5000 0 5000 -5000 0 -5000 0 0
-5000z m9500 0 l0 -4500 -4500 0 -4500 0 0 4500 0 4500 4500 0 4500 0 0 -4500z"/>
<path d="M950 8535 l0 -205 154 0 153 0 7 -77 c18 -220 105 -415 255 -575 124
-133 255 -218 393 -258 40 -11 82 -26 93 -33 15 -9 241 -13 940 -18 897 -5
958 -7 1010 -37 11 -6 36 -18 56 -25 71 -28 194 -144 215 -203 4 -10 12 -26
18 -34 19 -25 36 -83 46 -161 6 -46 10 -1141 10 -2871 l0 -2798 230 0 230 0
-3 2888 c-2 2750 -3 2890 -21 2957 -10 39 -26 88 -36 110 -10 22 -26 56 -34
75 -9 19 -25 50 -36 68 l-20 32 400 0 400 0 -38 -72 c-21 -40 -47 -102 -56
-138 -10 -36 -23 -71 -30 -79 -8 -10 -12 -761 -14 -2928 l-2 -2913 230 0 230
0 2 2868 c2 2032 6 2873 14 2883 6 8 19 37 29 64 34 93 96 164 209 237 23 15
102 50 136 61 23 7 340 13 955 16 l920 6 113 39 c114 38 128 45 250 125 110
72 245 221 300 331 7 14 20 37 28 53 31 57 67 196 77 300 l10 107 144 0 143 0
0 205 0 205 -4055 0 -4055 0 0 -205z m7358 -263 c-5 -53 -15 -82 -66 -190 -16
-35 -106 -130 -160 -170 -17 -12 -46 -28 -64 -34 -18 -6 -44 -18 -58 -27 -22
-15 -296 -16 -2940 -16 -2655 0 -2918 1 -2940 16 -14 9 -42 21 -62 28 -20 7
-54 25 -75 41 -39 30 -113 99 -113 105 0 2 -13 24 -29 48 -39 57 -60 118 -68
195 l-6 62 3293 0 3293 0 -5 -58z"/>
<path d="M2996 7024 c-155 -30 -246 -79 -368 -195 -80 -76 -106 -111 -152
-204 -70 -142 -92 -309 -61 -470 14 -76 55 -190 83 -231 4 -6 20 -30 35 -53
33 -50 112 -128 182 -180 105 -79 285 -141 409 -141 74 0 76 6 76 237 0 148
-3 203 -12 211 -7 5 -33 13 -58 17 -91 14 -121 28 -177 84 -59 59 -69 78 -84
154 -40 215 212 407 397 302 71 -41 101 -72 137 -140 l32 -60 3 -2563 2 -2562
230 0 230 0 -4 2573 c-2 1414 -7 2597 -11 2627 -4 30 -11 60 -15 65 -4 6 -15
37 -25 70 -9 33 -37 90 -61 127 -49 76 -171 201 -218 225 -17 8 -40 23 -51 33
-11 10 -49 28 -85 40 -148 50 -297 62 -434 34z"/>
<path d="M6716 7024 c-82 -16 -194 -52 -202 -65 -3 -5 -24 -19 -47 -30 -46
-24 -164 -134 -208 -194 -39 -55 -94 -168 -116 -240 -17 -57 -18 -188 -20
-2662 l-3 -2603 230 0 230 0 0 2528 c0 1765 3 2546 11 2587 19 102 64 161 163
211 74 38 153 37 229 -1 187 -95 226 -315 81 -460 -46 -46 -82 -64 -162 -78
-91 -17 -92 -18 -92 -244 0 -174 1 -184 21 -204 19 -19 29 -21 93 -16 243 18
455 151 593 372 70 112 109 342 84 491 -17 100 -50 203 -75 239 -12 16 -28 42
-36 58 -19 38 -165 184 -204 203 -17 9 -40 24 -51 34 -24 21 -122 54 -220 75
-85 18 -207 18 -299 -1z"/>
</g>
</svg>
